<svg xmlns="http://www.w3.org/2000/svg" width="1024" height="1024" viewBox="0 0 1024 1024">
  <rect width="1024" height="1024" rx="220" fill="#4165cd" />
  <g transform="translate(-356.125, 35.125) scale(1.25)">
  <path id="4" d="M 769,565 C 751.562,566.701 735.025,567.421 721,567.697 C 683.785,568.429 663.650,566.036 618.500,555.516 C 578.886,546.286 557.150,542.700 533.750,541.535 C 530.167,541.357 526.583,541.178 523,541 C 519.604,540.821 516.207,540.642 512.811,540.463 C 509.415,540.284 506.018,540.105 502.622,539.926 C 502.474,537.873 502.325,535.820 502.177,533.767 C 501.076,518.548 494.172,501.903 484.576,491.330 C 477.569,483.610 465.952,474.801 457.763,471 C 451.723,468.197 435.239,463 432.388,463 C 431.625,463 431,462.100 431,459 C 432.333,453.333 433.667,447.667 435,442 C 435.303,441.832 435.606,441.665 435.909,441.497 C 436.409,441.221 441.696,442.170 447.658,443.607 C 464.966,447.778 472.184,445.877 484.544,433.892 C 489.520,429.067 492.410,426.953 495,428 C 501.613,435.086 506.350,438.513 509.921,440.275 C 515.508,443.032 517.610,443.494 526.110,443.835 C 540.023,444.394 550.650,441.812 570.250,433.109 C 571.833,432.406 573.417,431.703 575,431 C 577.917,429.315 580.833,427.631 583.750,425.946 C 597.784,417.841 611.197,411.290 617.522,409.451 C 625.354,407.174 634.073,407.983 645,412 C 647.333,413.333 649.667,414.667 652,416 C 652.083,416.460 652.167,416.921 652.250,417.381 C 652.388,418.141 646.763,425.100 639.750,432.847 C 632.737,440.594 627,447.351 627,447.862 C 627,448.919 636.128,455 637.715,455 C 638.287,455 640.883,452.413 643.483,449.250 C 654.922,435.338 665.312,425.908 668,427 C 674.333,431.333 680.667,435.667 687,440 C 687.037,440.250 687.074,440.500 687.111,440.750 C 687.224,441.512 673.245,458.169 666.305,465.542 C 665.037,466.889 663.768,468.238 662.500,469.585 C 664.149,470.654 665.797,471.723 667.446,472.792 C 670.166,474.556 672.915,476 673.554,476 C 674.193,476 680.067,470.263 686.608,463.250 C 695.793,453.403 699.012,450.557 703,451 C 709.667,455 716.333,459 723,463 C 723.192,463.474 723.385,463.948 723.577,464.422 C 723.935,465.305 720.994,469.308 715.827,474.970 C 711.247,479.989 705.981,485.824 704.125,487.937 C 703,489.217 701.874,490.498 700.749,491.778 C 702.514,492.967 704.279,494.155 706.044,495.344 C 708.980,497.321 711.873,498.596 712.538,498.205 C 713.197,497.817 718.589,492.100 724.519,485.500 C 730.449,478.900 735.770,473.195 736.342,472.823 C 736.914,472.451 738.646,472.788 743,475 C 771.423,488.004 781.496,490.965 816,496.461 C 825.075,497.906 834.188,499.519 836.250,500.045 C 837.500,500.363 838.750,500.682 840,501 C 840.250,501.049 840.500,501.098 840.750,501.147 C 841.162,501.228 840.150,502.556 838.500,504.098 C 834.621,507.723 826.910,511.026 810.634,516.033 C 794.729,520.926 790.573,522.863 784.495,528.213 C 775.554,536.083 773.058,542.010 769,565 Z" fill="#FFF" stroke="none"/>
  <path id="4" d="M 595,349 C 598,344.333 601,339.667 604,335 C 604.250,334.987 604.500,334.973 604.750,334.960 C 605.162,334.938 609.365,337.155 614.089,339.887 C 625.370,346.411 631.655,348.438 638.198,347.663 C 640.997,347.331 647.948,345.022 664,338 C 668.935,350.822 674.413,357.615 683.315,361.953 C 693.819,367.071 700.870,368.432 716,368.263 C 723.425,368.180 731.862,367.637 734.750,367.056 C 736.500,366.704 738.250,366.352 740,366 C 745.583,364.977 751.167,363.954 756.750,362.931 C 778.298,358.983 790.156,358.686 798.285,361.890 C 801.767,363.262 806.444,366.325 816,375 C 816.333,375.667 816.667,376.333 817,377 C 816.750,377.481 816.500,377.961 816.250,378.442 C 815.473,379.936 804.441,386.705 792.043,393.295 C 788.116,395.382 784.658,397.728 784.359,398.507 C 783.794,399.978 788.634,407.589 790.649,408.398 C 791.281,408.652 796.681,406.122 802.649,402.775 C 822.083,391.876 826.357,390.129 829,392 C 833,397.667 837,403.333 841,409 C 841.169,409.583 841.337,410.167 841.506,410.750 C 841.909,412.143 838.750,414.328 826.006,421.471 C 817.203,426.405 810.005,430.905 810.012,431.471 C 810.019,432.037 811.844,434.459 814.068,436.854 C 815.416,438.305 816.763,439.757 818.111,441.208 C 823.242,438.321 828.373,435.433 833.504,432.546 C 841.970,427.782 849.820,423.910 853,424 C 858,430.333 863,436.667 868,443 C 868.180,443.442 868.361,443.885 868.541,444.327 C 868.895,445.196 866.219,447.286 860.791,450.380 C 841.704,461.260 839.496,462.662 839.223,464.080 C 839.066,464.897 840.574,467.479 842.574,469.816 C 843.786,471.232 844.999,472.649 846.211,474.065 C 848.759,472.679 851.308,471.294 853.856,469.908 C 858.060,467.622 865.325,463.445 870,460.626 C 872.833,458.917 875.667,457.209 878.500,455.500 C 883.333,460 888.167,464.500 893,469 C 908.779,480.648 919.637,487.035 942.432,498.073 C 952.408,502.904 963.142,508.239 966.285,509.928 C 968.190,510.952 970.095,511.976 972,513 C 972.194,513.623 972.388,514.245 972.582,514.868 C 973.456,517.674 970.363,518.104 944,518.846 C 936.167,519.066 928.333,519.287 920.500,519.507 C 918.405,520.642 916.310,521.777 914.215,522.912 C 910.758,524.784 906.519,527.924 904.794,529.888 C 901.588,533.540 895,546.654 895,549.385 C 895,550.219 894.325,551.373 892,553 C 889.167,552.477 886.333,551.955 883.500,551.432 C 883.602,549.443 883.705,547.455 883.807,545.466 C 884.799,526.210 874.487,505.068 859.792,496.238 C 851.249,491.104 844.522,489.224 821.239,485.461 C 795.659,481.327 783.129,478.453 769.605,473.616 C 751.755,467.232 719.395,448.266 684,423.445 C 674.375,416.695 663.353,409.262 659.506,406.927 C 654.672,403.992 645.359,395.731 629.347,380.171 C 606.992,358.448 600.474,353.016 596.750,353.005 C 595.668,353.002 595,352.236 595,351 C 595,350.333 595,349.667 595,349 Z" fill="#FFF" stroke="none"/>
  <path id="21" d="M 417.619,552 C 420.143,545.675 422.753,539.925 423.418,539.222 C 424.394,538.191 425.745,538.439 430.425,540.509 C 448.325,548.425 469.218,551.319 524.500,553.536 C 554.196,554.727 566.808,556.595 611,566.352 C 666.030,578.502 678.866,580.213 715,580.216 C 766.919,580.220 820.841,570.518 858.645,554.369 C 864.448,551.890 869.449,550.116 869.758,550.425 C 870.793,551.460 868.049,558.632 865.018,562.816 C 856.252,574.917 827.719,589.657 796,598.470 C 757.119,609.273 713.123,611.457 644.500,605.991 C 613.194,603.497 594.915,602.822 535.500,601.968 C 469.918,601.025 465.181,600.727 449,596.525 C 440.387,594.288 426.720,587.831 421.436,583.501 C 416.395,579.370 412.994,572.883 413.014,567.434 C 413.022,565.126 414.926,558.747 417.619,552 Z" fill="#d1d5dc" stroke="none"/>
  <path id="8" d="M 599,183 C 606.798,180.524 611.306,180.502 616.616,182.913 C 624.807,186.633 629.200,197.251 626.158,205.977 C 625.136,208.908 625.278,209.211 628.789,211.614 C 640.932,219.924 658.425,230.997 659.381,230.978 C 659.997,230.966 667.170,221.806 675.323,210.622 C 680.264,203.844 685.205,197.066 690.146,190.288 C 689.456,189.157 688.767,188.025 688.077,186.894 C 685.584,182.805 685.250,173.351 687.449,169.099 C 688.246,167.558 690.608,164.775 692.699,162.914 C 696.252,159.752 696.962,159.529 703.569,159.515 C 709.563,159.502 711.250,159.905 714.663,162.161 C 722.207,167.148 724.814,178.565 720.197,186.391 C 719.453,187.652 718.709,188.913 717.965,190.174 C 722.721,196.696 727.476,203.219 732.232,209.741 C 740.079,220.503 747.191,229.738 748.034,230.263 C 749.196,230.986 753.592,228.588 766.194,220.358 C 781.694,210.236 782.776,209.331 782.160,207 C 780.638,201.239 781.433,193.449 783.910,189.835 C 787.233,184.988 792.161,181.849 797.371,181.262 C 802.838,180.646 809,182.535 809.002,184.828 C 809.003,185.748 803.515,206.637 796.808,231.250 C 792.743,246.167 788.679,261.083 784.614,276 C 772.678,276 760.743,276 748.807,276 C 736.871,276 724.936,276 713,276 C 713,273.903 713,271.807 713,269.710 C 713,261.982 715.154,253.394 719.050,245.590 C 720.673,242.340 722,239.017 722,238.206 C 722,237.395 718.305,231.598 713.788,225.324 C 708.023,217.316 705.056,214.003 703.835,214.208 C 702.878,214.368 698.249,219.848 693.550,226.384 C 690.702,230.345 687.854,234.306 685.006,238.267 C 685.973,239.972 686.940,241.678 687.907,243.384 C 693.013,252.389 695,261.525 695,276 C 671.167,275.833 647.333,275.667 623.500,275.500 C 619.385,260.333 615.269,245.167 611.154,230 C 604.364,204.975 598.851,184.163 598.904,183.750 C 598.936,183.500 598.968,183.250 599,183 Z" fill="#FFF" stroke="none"/>
  <path id="21" d="M 523,541 C 495.691,540.985 461.626,537.566 447.237,533.396 C 436.883,530.396 429.460,526.706 427.831,523.751 C 425.557,519.625 426.126,487.701 428.750,472.250 C 429.500,467.833 430.250,463.417 431,459 C 431,462.100 431.625,463 432.388,463 C 435.239,463 451.723,468.197 457.763,471 C 465.952,474.801 477.569,483.610 484.576,491.330 C 494.172,501.903 501.076,518.548 502.177,533.767 C 502.325,535.820 502.474,537.873 502.622,539.926 C 506.018,540.105 509.415,540.284 512.811,540.463 C 516.207,540.642 519.604,540.821 523,541 Z" fill="#d1d5dc" stroke="none"/>
  <path id="21" d="M 840,501 C 852.800,505.800 855.819,507.735 860.126,511.969 C 866.019,517.763 870,525.882 870,532.107 C 870,534.990 869.436,535.407 858.543,540.585 C 840.198,549.305 817.661,555.841 784.250,562.130 C 779.167,563.087 774.083,564.043 769,565 C 773.058,542.010 775.554,536.083 784.495,528.213 C 790.573,522.863 794.729,520.926 810.634,516.033 C 826.910,511.026 834.621,507.723 838.500,504.098 C 840.150,502.556 841.162,501.228 840.750,501.147 C 840.500,501.098 840.250,501.049 840,501 Z" fill="#d1d5dc" stroke="none"/>
  <path id="21" d="M 972,513 C 990.333,527.421 995,534.841 995,549.570 C 995,551.639 995,553.708 995,555.777 C 993.917,555.974 992.833,556.171 991.750,556.368 C 969.573,560.399 938.624,559.895 905.250,554.959 C 900.833,554.306 896.417,553.653 892,553 C 894.325,551.373 895,550.219 895,549.385 C 895,546.654 901.588,533.540 904.794,529.888 C 906.519,527.924 910.758,524.784 914.215,522.912 C 916.310,521.777 918.405,520.642 920.500,519.507 C 928.333,519.287 936.167,519.066 944,518.846 C 970.363,518.104 973.456,517.674 972.582,514.868 C 972.388,514.245 972.194,513.623 972,513 Z" fill="#d1d5dc" stroke="none"/>
  <path id="21" d="M 857.870,584.730 C 863.539,581.077 873.945,570.984 877.067,566.110 C 877.577,565.313 878.088,564.517 878.598,563.720 C 884.248,564.587 889.899,565.455 895.549,566.322 C 927.253,571.189 954.361,572.808 975,571.069 C 982.425,570.443 989.287,569.692 990.250,569.399 C 993.052,568.545 992.434,573.100 989.128,577.664 C 982.822,586.369 973.874,591.141 955.595,595.546 C 935.804,600.315 905.992,600.492 878.500,596.002 C 863.900,593.618 852.751,590.848 852.331,589.500 C 852.159,588.950 854.652,586.803 857.870,584.730 Z" fill="#d1d5dc" stroke="none"/>
  <path id="21" d="M 740,366 C 740.489,342.029 740.657,341.146 743.929,334.483 C 747.846,326.505 755.537,318.371 762.223,315.134 C 765.693,313.454 768.493,313 775.373,313 C 778.287,313 781.200,313 784.114,313 C 785.216,315.417 786.318,317.833 787.420,320.250 C 789.239,324.237 793.319,332.900 796.486,339.500 C 799.653,346.100 804.181,355.550 806.548,360.500 C 808.915,365.450 812.009,370.737 813.425,372.250 C 814.283,373.167 815.142,374.083 816,375 C 806.444,366.325 801.767,363.262 798.285,361.890 C 790.156,358.686 778.298,358.983 756.750,362.931 C 751.167,363.954 745.583,364.977 740,366 Z" fill="#d1d5dc" stroke="none"/>
  <path id="21" d="M 575,431 C 575.314,429.062 573.852,425.350 571.953,421.500 C 568.676,414.857 568.500,413.962 568.500,403.948 C 568.500,393.740 568.624,393.145 572.311,385.684 C 578.509,373.143 590.470,363.148 596.251,365.680 C 597.488,366.222 608.963,376.866 621.750,389.333 C 629.500,396.889 637.250,404.444 645,412 C 634.073,407.983 625.354,407.174 617.522,409.451 C 611.197,411.290 597.784,417.841 583.750,425.946 C 580.833,427.631 577.917,429.315 575,431 Z" fill="#d1d5dc" stroke="none"/>
  <path id="10" d="M 625.200,286.200 C 626.113,285.287 644.995,285 704.078,285 C 769.771,285 781.936,285.218 782.928,286.413 C 783.633,287.263 783.980,290.352 783.800,294.163 C 783.700,296.275 783.600,298.388 783.500,300.500 C 757.188,300.585 730.875,300.671 704.563,300.756 C 642.075,300.959 625.459,300.750 624.828,299.756 C 623.582,297.793 623.863,287.537 625.200,286.200 Z" fill="#d1d5dc" stroke="none"/>
  <path id="21" d="M 435,442 C 446.234,408.401 447.379,405.715 453.096,399.512 C 458.139,394.041 461.584,392.635 468.537,393.212 C 475.829,393.817 479.810,397.579 484.102,407.927 C 488.050,417.444 491.381,423.994 493.419,426.250 C 493.946,426.833 494.473,427.417 495,428 C 492.410,426.953 489.520,429.067 484.544,433.892 C 472.184,445.877 464.966,447.778 447.658,443.607 C 441.696,442.170 436.409,441.221 435.909,441.497 C 435.606,441.665 435.303,441.832 435,442 Z" fill="#d1d5dc" stroke="none"/>
  <path id="21" d="M 604,335 C 609.193,327.833 614.386,320.667 619.579,313.500 C 626.439,313.410 633.299,313.320 640.159,313.230 C 647.019,313.140 653.879,313.050 660.739,312.960 C 660.973,315.957 661.208,318.955 661.442,321.952 C 661.829,326.898 662.563,332.532 663.073,334.472 C 663.382,335.648 663.691,336.824 664,338 C 647.948,345.022 640.997,347.331 638.198,347.663 C 631.655,348.438 625.370,346.411 614.089,339.887 C 609.365,337.155 605.162,334.938 604.750,334.960 C 604.500,334.973 604.250,334.987 604,335 Z" fill="#d1d5dc" stroke="none"/>
  <path id="10" d="M 713,276 C 707,276 701,276 695,276 C 695,261.525 693.013,252.389 687.907,243.384 C 686.940,241.678 685.973,239.972 685.006,238.267 C 687.854,234.306 690.702,230.345 693.550,226.384 C 698.249,219.848 702.878,214.368 703.835,214.208 C 705.056,214.003 708.023,217.316 713.788,225.324 C 718.305,231.598 722,237.395 722,238.206 C 722,239.017 720.673,242.340 719.050,245.590 C 715.154,253.394 713,261.982 713,269.710 C 713,271.807 713,273.903 713,276 Z" fill="#d1d5dc" stroke="none"/>
  <path id="21" d="M 652,416 C 657.333,419.667 662.667,423.333 668,427 C 665.312,425.908 654.922,435.338 643.483,449.250 C 640.883,452.413 638.287,455 637.715,455 C 636.128,455 627,448.919 627,447.862 C 627,447.351 632.737,440.594 639.750,432.847 C 646.763,425.100 652.388,418.141 652.250,417.381 C 652.167,416.921 652.083,416.460 652,416 Z" fill="#d1d5dc" stroke="none"/>
  <path id="21" d="M 817,377 C 824.551,386.688 827.251,390.062 827.872,390.750 C 828.248,391.167 828.624,391.583 829,392 C 826.357,390.129 822.083,391.876 802.649,402.775 C 796.681,406.122 791.281,408.652 790.649,408.398 C 788.634,407.589 783.794,399.978 784.359,398.507 C 784.658,397.728 788.116,395.382 792.043,393.295 C 804.441,386.705 815.473,379.936 816.250,378.442 C 816.500,377.961 816.750,377.481 817,377 Z" fill="#d1d5dc" stroke="none"/>
  <path id="21" d="M 687,440 C 692.333,443.667 697.667,447.333 703,451 C 699.012,450.557 695.793,453.403 686.608,463.250 C 680.067,470.263 674.193,476 673.554,476 C 672.915,476 670.166,474.556 667.446,472.792 C 665.797,471.723 664.149,470.654 662.500,469.585 C 663.768,468.238 665.037,466.889 666.305,465.542 C 673.245,458.169 687.224,441.512 687.111,440.750 C 687.074,440.500 687.037,440.250 687,440 Z" fill="#d1d5dc" stroke="none"/>
  <path id="21" d="M 841,409 C 848.551,418.688 851.251,422.062 851.872,422.750 C 852.248,423.167 852.624,423.583 853,424 C 849.820,423.910 841.970,427.782 833.504,432.546 C 828.373,435.433 823.242,438.321 818.111,441.208 C 816.763,439.757 815.416,438.305 814.068,436.854 C 811.844,434.459 810.019,432.037 810.012,431.471 C 810.005,430.905 817.203,426.405 826.006,421.471 C 838.750,414.328 841.909,412.143 841.506,410.750 C 841.337,410.167 841.169,409.583 841,409 Z" fill="#d1d5dc" stroke="none"/>
  <path id="21" d="M 723,463 C 727.263,465.840 731.763,468.540 735.750,470.832 C 738.167,472.221 740.583,473.611 743,475 C 738.646,472.788 736.914,472.451 736.342,472.823 C 735.770,473.195 730.449,478.900 724.519,485.500 C 718.589,492.100 713.197,497.817 712.538,498.205 C 711.873,498.596 708.980,497.321 706.044,495.344 C 704.279,494.155 702.514,492.967 700.749,491.778 C 701.874,490.498 703,489.217 704.125,487.937 C 705.981,485.824 711.247,479.989 715.827,474.970 C 720.994,469.308 723.935,465.305 723.577,464.422 C 723.385,463.948 723.192,463.474 723,463 Z" fill="#d1d5dc" stroke="none"/>
  <path id="21" d="M 868,443 C 876.333,451.667 884.667,460.333 893,469 C 888.167,464.500 883.333,460 878.500,455.500 C 875.667,457.209 872.833,458.917 870,460.626 C 865.325,463.445 858.060,467.622 853.856,469.908 C 851.308,471.294 848.759,472.679 846.211,474.065 C 844.999,472.649 843.786,471.232 842.574,469.816 C 840.574,467.479 839.066,464.897 839.223,464.080 C 839.496,462.662 841.704,461.260 860.791,450.380 C 866.219,447.286 868.895,445.196 868.541,444.327 C 868.361,443.885 868.180,443.442 868,443 Z" fill="#d1d5dc" stroke="none"/>
  </g>
</svg>